<?xml version="1.0" encoding="UTF-8" standalone="no"?>
<svg
   viewBox="0 0 512 512"
   version="1.1"
   id="svg28"
   xml:space="preserve"
   width="512"
   height="512"
   xmlns="http://www.w3.org/2000/svg"
   xmlns:svg="http://www.w3.org/2000/svg"
   xmlns:rdf="http://www.w3.org/1999/02/22-rdf-syntax-ns#"
   xmlns:cc="http://creativecommons.org/ns#"><defs
     id="defs32"><radialGradient
       id="face_1_"
       cx="63.599998"
       cy="2584.8999"
       r="56.959702"
       gradientTransform="translate(0,-2522)"
       gradientUnits="userSpaceOnUse">
		<stop
   offset="0.5"
   style="stop-color:#FDE030"
   id="stop26540" />
		<stop
   offset="0.92"
   style="stop-color:#F7C02B"
   id="stop26542" />
		<stop
   offset="1"
   style="stop-color:#F4A223"
   id="stop26544" />
	</radialGradient></defs><metadata
     id="metadata4934"><rdf:RDF><cc:Work
         rdf:about="" /></rdf:RDF></metadata><g
     id="layer1"
     style="display:inline"
     transform="matrix(27.927726,0,0,27.927726,-202.52687,206.01073)"><ellipse
       style="display:inline;fill:#af7fff;fill-opacity:1;stroke-width:1.00157"
       id="path8083"
       cx="21.84833"
       cy="-1.4226819"
       rx="3.736527"
       ry="3.5209582" /><ellipse
       style="display:inline;fill:#af7fff;fill-opacity:1;stroke-width:1.00157"
       id="ellipse8087"
       cx="-10.988348"
       cy="-1.4226819"
       rx="3.736527"
       ry="3.5209582"
       transform="scale(-1,1)" /><ellipse
       style="display:inline;fill:#e5a500;fill-opacity:1;stroke-width:1.00157"
       id="path8145"
       cy="12.146552"
       cx="17.567377"
       ry="2.2559991"
       rx="2.7900665"
       transform="rotate(-36.978862)" /><ellipse
       style="display:inline;fill:#e5a500;fill-opacity:1;stroke-width:1.00157"
       id="path8145-6"
       cy="-7.6584597"
       cx="-8.7349453"
       ry="2.2559991"
       rx="2.7900665"
       transform="matrix(-0.79885748,-0.60152034,-0.60152034,0.79885748,0,0)" /><path
       id="path8081"
       style="display:inline;fill:#af7fff;fill-opacity:1;stroke-width:1.00157"
       d="M 22.181201,3.8837945 C 22.067992,6.809088 20.035586,8.5543798 16.411652,8.52313 13.225336,8.495654 10.697664,6.8107509 10.642102,3.8837945 c -0.03125,-1.6462337 1.724851,-5.8622581 5.76955,-5.8310079 4.044699,0.03125 5.832049,4.2160245 5.769549,5.8310079 z" /><g
       id="facial_expressions"
       style="display:none"
       transform="matrix(0.11488112,0,0,0.11488112,8.8972128,-3.9518151)">
	<path
   style="fill:#422b0d;stroke-width:0.772301"
   d="m 74.686169,83.928395 c 1.320635,-1.166176 2.146998,-2.780286 2.316904,-4.533411 0.146737,-2.780285 -0.56378,-3.737939 -1.475096,-4.950452 -2.092937,-2.818901 -8.031935,-2.146998 -8.031935,-2.146998 -1.544603,0.06178 -3.429019,0.818639 -3.205051,2.656717 0.301197,1.042607 1.150729,1.838077 2.216505,2.077491 2.316904,0.56378 5.691862,0 5.784538,2.386411 0.108122,2.672163 -4.000522,1.544603 -4.324888,4.402119 -0.324367,2.857516 4.324888,2.463642 4.324888,4.409842 0,1.490542 -1.544603,1.745401 -3.143267,2.085214 -1.38242,0.285751 -4.039137,0.71824 -4.255381,2.316905 -0.216245,1.598664 0.702794,3.529418 4.440733,2.965638 5.877215,-0.888147 7.854306,-4.108645 7.854306,-6.085737 0.03861,-2.139275 -0.880423,-4.185874 -2.502256,-5.583739 z"
   id="path23729" />
	<g
   id="smiling-eyes-grinning-face">
		<g
   id="eyes-3">
			<path
   style="fill:#422b0d"
   d="m 49,56.89 -0.15,-0.2 -0.43,-0.55 -0.53,-0.57 c -0.22,-0.25 -0.48,-0.49 -0.73,-0.75 -0.25,-0.26 -0.56,-0.51 -0.84,-0.72 -0.26,-0.2 -0.54,-0.39 -0.84,-0.54 -0.2,-0.11 -0.42,-0.2 -0.65,-0.25 -0.07,-0.01 -0.14,-0.01 -0.21,0 0,0 -0.06,0 -0.09,0 h -0.08 c 0.12,0 -0.27,0 0.27,0 h -0.55 c -0.15,0 -0.05,0 0,0 h 0.08 c 0.08,0 0,0 0,0 h -0.11 c -0.23,0.05 -0.45,0.13 -0.66,0.25 -0.29,0.16 -0.58,0.34 -0.84,0.54 -0.29,0.22 -0.57,0.46 -0.83,0.72 -0.53,0.51 -1,1 -1.3,1.39 l -0.52,0.6 -0.23,0.27 c -1.44,1.61 -3.87,1.87 -5.62,0.61 -1.12,-0.78 -1.69,-2.13 -1.47,-3.48 0,0 0.07,-0.4 0.26,-1.11 0.3,-1.01 0.72,-1.99 1.25,-2.91 0.85,-1.5 2,-2.81 3.38,-3.85 0.91,-0.7 1.92,-1.26 3,-1.65 0.3,-0.12 0.61,-0.21 0.92,-0.29 0.33,-0.1 0.66,-0.17 1,-0.23 l 0.61,-0.09 0.51,-0.06 h 0.55 0.79 0.51 c 0.34,0 0.67,0.09 1,0.14 0.64,0.11 1.28,0.28 1.89,0.51 1.08,0.39 2.09,0.95 3,1.65 1.38,1.04 2.53,2.35 3.38,3.85 0.31,0.52 0.58,1.07 0.8,1.63 0.19,0.45 0.35,0.9 0.48,1.37 0.07,0.24 0.13,0.48 0.16,0.72 v 0.25 c 0.3,2.04 -1.12,3.94 -3.16,4.24 -0.05,0.01 -0.1,0.01 -0.15,0.02 -1.46,0.21 -2.92,-0.37 -3.85,-1.51 z"
   id="path23731" />
			<path
   style="fill:#422b0d"
   d="m 88.46,56.89 -0.16,-0.2 -0.43,-0.55 -0.53,-0.57 c -0.22,-0.25 -0.48,-0.49 -0.73,-0.75 -0.25,-0.26 -0.56,-0.51 -0.84,-0.72 -0.26,-0.2 -0.54,-0.39 -0.84,-0.54 -0.2,-0.11 -0.42,-0.2 -0.65,-0.25 -0.07,-0.01 -0.14,-0.01 -0.21,0 0,0 -0.06,0 -0.09,0 H 83.9 c 0.12,0 -0.27,0 0.27,0 h -0.55 c -0.15,0 -0.05,0 0,0 h 0.08 c 0.08,0 0,0 0,0 h -0.11 c -0.23,0.05 -0.45,0.13 -0.66,0.25 -0.29,0.15 -0.57,0.34 -0.83,0.54 -0.3,0.22 -0.58,0.46 -0.84,0.72 -0.53,0.51 -1,1 -1.3,1.39 l -0.52,0.6 -0.22,0.27 c -1.45,1.61 -3.87,1.87 -5.63,0.61 -1.12,-0.78 -1.69,-2.13 -1.47,-3.48 0,0 0.07,-0.4 0.27,-1.11 0.3,-1.02 0.71,-2 1.25,-2.91 0.85,-1.5 1.99,-2.81 3.37,-3.85 0.91,-0.7 1.92,-1.26 3,-1.65 0.3,-0.12 0.61,-0.21 0.92,-0.29 0.33,-0.1 0.66,-0.17 1,-0.23 l 0.62,-0.09 0.5,-0.06 h 0.55 0.79 0.51 c 0.34,0 0.67,0.09 1,0.14 0.65,0.11 1.28,0.28 1.89,0.51 1.08,0.39 2.09,0.95 3,1.65 1.38,1.04 2.53,2.35 3.38,3.85 0.31,0.52 0.58,1.07 0.8,1.63 0.19,0.44 0.35,0.89 0.48,1.35 0.07,0.24 0.13,0.48 0.16,0.72 v 0.25 c 0.32,2.04 -1.08,3.95 -3.12,4.27 -0.03,0 -0.06,0.01 -0.09,0.01 -1.49,0.25 -3,-0.33 -3.94,-1.51 z"
   id="path23733" />
		</g>
	</g><path
   id="path8993-7"
   style="display:inline;fill:#e5a500;fill-opacity:1;stroke:none;stroke-width:0.877633;stroke-linecap:round;stroke-linejoin:round;stroke-dasharray:none;stroke-opacity:1"
   d="m 16.400479,2.417969 c -0.427613,0.0011 -0.848187,0.362688 -0.854085,0.675419 l 0.858557,0.66809 0.847899,-0.651942 C 17.2268,2.788553 16.831336,2.417904 16.400479,2.417969 Z"
   transform="matrix(8.7046505,0,0,8.7046505,-77.447128,39.015505)" /><path
   id="rect8729-8"
   style="display:inline;fill:#362700;fill-opacity:1;stroke-width:0.877633;stroke-linecap:round;stroke-linejoin:round"
   d="m 16.394287,3.538883 c 0.176777,0 0.86501,-0.437927 0.86501,-0.437927 0,0 -0.61117,0.789898 -0.854238,0.811995 -0.276214,0.0221 -0.865009,-0.822235 -0.865009,-0.822235 0,0 0.688509,0.448167 0.854237,0.448167 z"
   transform="matrix(8.7046505,0,0,8.7046505,-77.447128,39.015505)" />
	
</g><g
       id="layer2"
       style="display:inline"
       transform="translate(2,-9.375)"><path
         style="fill:none;fill-opacity:1;stroke:#422b0d;stroke-width:0.402;stroke-linecap:round;stroke-linejoin:round;stroke-dasharray:none;stroke-opacity:1"
         id="path8406-2"
         d="M -11.311071,9.4765397 A 1.7910547,2.4515858 0 0 1 -12.910742,8.3403253"
         transform="scale(-1,1)" /><path
         style="fill:none;fill-opacity:1;stroke:#422b0d;stroke-width:0.802;stroke-linecap:round;stroke-linejoin:round;stroke-dasharray:none;stroke-opacity:1"
         id="path8623"
         d="m -11.17092,11.646005 a 1.8926748,2.5278008 0 0 1 -1.834509,-1.175102"
         transform="scale(-1,1)" /><path
         style="fill:none;fill-opacity:1;stroke:#422b0d;stroke-width:0.402;stroke-linecap:round;stroke-linejoin:round;stroke-dasharray:none;stroke-opacity:1"
         id="path8406-2-4"
         d="M 17.534458,9.4765397 A 1.7910547,2.4515858 0 0 1 15.934787,8.3403253" /><path
         style="fill:none;fill-opacity:1;stroke:#422b0d;stroke-width:0.802;stroke-linecap:round;stroke-linejoin:round;stroke-dasharray:none;stroke-opacity:1"
         id="path8623-6"
         d="M 17.674609,11.646005 A 1.8926748,2.5278008 0 0 1 15.840101,10.470903" /><path
         id="path8993"
         style="fill:#e5a500;fill-opacity:1;stroke:none;stroke-width:0.877633;stroke-linecap:round;stroke-linejoin:round;stroke-dasharray:none;stroke-opacity:1"
         d="m 14.400479,11.792969 c -0.427613,0.0011 -0.848187,0.362688 -0.854085,0.675419 l 0.858557,0.66809 0.847899,-0.651942 C 15.2268,12.163553 14.831336,11.792904 14.400479,11.792969 Z" /><path
         id="rect8729"
         style="fill:#362700;fill-opacity:1;stroke-width:0.877633;stroke-linecap:round;stroke-linejoin:round"
         d="m 14.394287,12.913883 c 0.176777,0 0.86501,-0.437927 0.86501,-0.437927 0,0 -0.61117,0.789898 -0.854238,0.811995 -0.276214,0.0221 -0.865009,-0.822235 -0.865009,-0.822235 0,0 0.688509,0.448167 0.854237,0.448167 z" /><path
         id="path9157"
         style="display:none;fill:#1e044d;fill-opacity:1;stroke-width:0.821726;stroke-linecap:round;stroke-linejoin:round"
         d="m 17.565483,16.293133 c 0,1.087915 -1.386455,-0.03269 -3.096733,-0.03269 -1.710278,0 -3.096733,1.202619 -3.096733,0.03269 0,-1.268349 0.58958,-3.21512 3.096733,-3.21512 2.507153,0 3.096733,1.946771 3.096733,3.21512 z" /><path
         id="path9212"
         style="display:inline;fill:#422b0d;fill-opacity:1;stroke-width:0.777162;stroke-linecap:round;stroke-linejoin:round"
         d="m 17.471733,16.276463 c 0,1.003489 -1.344482,0.01827 -3.002983,0.01827 -1.658501,0 -3.002983,1.060874 -3.002983,-0.01827 0,-1.169921 0.571731,-2.9172 3.002983,-2.9172 2.431252,0 3.002983,1.747279 3.002983,2.9172 z" /><path
         id="path9543-8"
         style="opacity:1;fill:#ffffff;fill-opacity:1;stroke:none;stroke-width:0.802;stroke-linecap:round;stroke-linejoin:round;stroke-dasharray:none;stroke-opacity:1"
         d="m 14.46875,13.359375 c -0.348867,0 -0.657497,0.03374 -0.933594,0.09375 a 0.5703125,1.0625 0 0 0 -0.0039,0.109375 0.5703125,1.0625 0 0 0 0.570312,1.0625 0.5703125,1.0625 0 0 0 0.328126,-0.195313 0.5703125,1.0625 0 0 0 0.351562,0.226563 0.5703125,1.0625 0 0 0 0.570312,-1.0625 0.5703125,1.0625 0 0 0 -0.0059,-0.152344 c -0.261753,-0.05252 -0.551737,-0.08203 -0.876953,-0.08203 z" /></g><g
       id="facial_expressions-7"
       style="display:none"
       transform="matrix(0.10987006,0,0,0.10987006,9.3379446,-3.7509566)">
	
		<radialGradient
   id="radialGradient27081"
   cx="63.599998"
   cy="2584.8999"
   r="56.959702"
   gradientTransform="translate(0,-2522)"
   gradientUnits="userSpaceOnUse">
		<stop
   offset="0.5"
   style="stop-color:#FDE030"
   id="stop27075" />
		<stop
   offset="0.92"
   style="stop-color:#F7C02B"
   id="stop27077" />
		<stop
   offset="1"
   style="stop-color:#F4A223"
   id="stop27079" />
	</radialGradient>
	<path
   id="face"
   style="display:none;fill:url(#face_1_)"
   d="M 63.6,118.8 C 35.7,118.8 5.6,101.3 5.6,62.9 5.6,24.5 35.7,7 63.6,7 c 15.5,0 29.8,5.1 40.4,14.4 11.5,10.2 17.6,24.6 17.6,41.5 0,16.9 -6.1,31.2 -17.6,41.4 -10.6,9.3 -25,14.5 -40.4,14.5 z" />
	<path
   style="display:none;fill:#eb8f00"
   d="m 111.49,29.67 c 5.33,8.6 8.11,18.84 8.11,30.23 0,16.9 -6.1,31.2 -17.6,41.4 -10.6,9.3 -25,14.5 -40.4,14.5 -18.06,0 -37,-7.35 -48.18,-22.94 10.76,17.66 31,25.94 50.18,25.94 15.4,0 29.8,-5.2 40.4,-14.5 11.5,-10.2 17.6,-24.5 17.6,-41.4 0,-12.74 -3.47,-24.06 -10.11,-33.23 z"
   id="path26548" />
	<path
   id="path9543-8-5"
   style="display:inline;fill:#ffffff;fill-opacity:1;stroke:none;stroke-width:7.29953;stroke-linecap:round;stroke-linejoin:round;stroke-dasharray:none;stroke-opacity:1"
   d="m 64.792822,84.587859 c -3.175269,0 -5.984315,0.30709 -8.497256,0.85328 a 5.1907908,9.6705144 0 0 0 -0.0355,0.995495 5.1907908,9.6705144 0 0 0 5.190787,9.670514 5.1907908,9.6705144 0 0 0 2.986491,-1.777673 5.1907908,9.6705144 0 0 0 3.199798,2.0621 5.1907908,9.6705144 0 0 0 5.190786,-9.670515 5.1907908,9.6705144 0 0 0 -0.0537,-1.386583 c -2.382387,-0.478019 -5.021723,-0.746609 -7.981729,-0.746609 z" /><path
   id="mouth-9"
   style="display:inline;fill:#35220b"
   d="M 83.9,90.7 C 83.51,90.69 83.14,90.59 82.8,90.4 77.07,87.16 70.58,85.5 64,85.6 c -6.58,-0.05 -13.05,1.6 -18.8,4.8 -0.3,0.19 -0.65,0.29 -1,0.3 -0.8,-0.03 -1.53,-0.49 -1.9,-1.2 -0.31,-0.73 -0.19,-1.58 0.3,-2.2 10.36,-11.82 28.34,-13 40.16,-2.64 0.94,0.82 1.82,1.7 2.64,2.64 0.74,0.88 0.62,2.18 -0.25,2.92 -0.35,0.29 -0.79,0.46 -1.25,0.48 z" />
	<g
   id="peepers"
   style="display:inline">
		<path
   style="fill:#35220b"
   d="m 73.9,50.1 c 0.08,0.01 0.15,0.04 0.2,0.1 0.11,0.01 0.19,0.09 0.2,0.2 0.1,0 0.1,0 0.2,0.1 0.23,0.12 0.46,0.22 0.7,0.3 l 0.9,0.3 c 0.82,0.27 1.65,0.47 2.5,0.6 0.5,0.1 1,0.1 1.5,0.2 0.53,0.08 1.06,0.12 1.6,0.1 h 1.6 c 0.51,-0.02 1.01,-0.08 1.5,-0.2 1,-0.2 1.8,-0.4 2.5,-0.6 0.7,-0.2 1.2,-0.5 1.6,-0.6 0.22,-0.05 0.43,-0.15 0.6,-0.3 L 90,50.1 c 1.44,-0.75 3.21,-0.21 4,1.2 0.57,1.06 0.45,2.36 -0.3,3.3 -0.08,0.09 -0.15,0.19 -0.2,0.3 -0.17,0.26 -0.37,0.5 -0.6,0.7 -0.76,0.76 -1.6,1.43 -2.5,2 -1.24,0.53 -2.51,1 -3.8,1.4 -0.76,0.21 -1.52,0.38 -2.3,0.5 -0.4,0 -0.8,0.1 -1.3,0.1 h -1.2 c -0.8,-0.02 -1.6,-0.08 -2.4,-0.2 -0.78,-0.11 -1.55,-0.28 -2.3,-0.5 -1.38,-0.36 -2.69,-0.94 -3.9,-1.7 -0.6,-0.3 -1,-0.7 -1.5,-1 -0.39,-0.31 -0.76,-0.64 -1.1,-1 L 70.2,54.8 C 70.1,54.7 70.1,54.6 70,54.6 l -0.2,-0.2 c -0.99,-1.33 -0.73,-3.21 0.6,-4.2 v 0 c 1.06,-0.68 2.41,-0.72 3.5,-0.1 z"
   id="path26551" />
		<path
   style="fill:#35220b"
   d="m 37.1,50.1 c 0.08,0.01 0.15,0.04 0.2,0.1 0.11,0.01 0.19,0.09 0.2,0.2 0.1,0 0.1,0 0.2,0.1 0.23,0.12 0.46,0.22 0.7,0.3 l 0.9,0.3 c 0.82,0.27 1.65,0.47 2.5,0.6 0.5,0.1 1,0.1 1.5,0.2 0.53,0.09 1.06,0.12 1.6,0.1 h 1.6 c 0.51,-0.02 1.01,-0.08 1.5,-0.2 1,-0.2 1.8,-0.4 2.5,-0.6 0.7,-0.2 1.2,-0.5 1.6,-0.6 0.22,-0.05 0.43,-0.15 0.6,-0.3 l 0.5,-0.2 c 1.44,-0.75 3.21,-0.21 4,1.2 0.57,1.06 0.45,2.36 -0.3,3.3 -0.08,0.09 -0.15,0.19 -0.2,0.3 -0.17,0.26 -0.37,0.5 -0.6,0.7 -0.74,0.78 -1.58,1.45 -2.5,2 -1.24,0.76 -2.59,1.34 -4,1.7 -0.76,0.21 -1.52,0.38 -2.3,0.5 -0.4,0 -0.8,0.1 -1.3,0.1 h -1.2 c -0.8,-0.02 -1.6,-0.08 -2.4,-0.2 -0.78,-0.11 -1.55,-0.28 -2.3,-0.5 -1.4,-0.38 -2.75,-0.95 -4,-1.7 -0.5,-0.3 -1,-0.7 -1.5,-1 -0.39,-0.31 -0.76,-0.64 -1.1,-1 L 33.1,55.1 C 33,55 33,54.9 32.9,54.9 l -0.2,-0.2 c -0.99,-1.33 -0.73,-3.21 0.6,-4.2 v 0 c 1.06,-0.9 2.57,-1.06 3.8,-0.4 z"
   id="path26553" />
	</g>
	<g
   id="eyebrows-6">
		<path
   style="fill:#422b0d"
   d="m 75.52,37.89 -0.1,0.12 c -1.46,2 -4.78,0.52 -3.63,-2 0.97,-2.01 2.24,-3.86 3.76,-5.49 4.07,-4.42 9.68,-7.11 15.67,-7.52 1.14,-0.1 2.15,0.76 2.25,1.9 0.09,1.09 -0.68,2.07 -1.77,2.23 -6.45,1.66 -12.16,5.45 -16.18,10.76 z"
   id="path26556" />
		<path
   style="fill:#422b0d"
   d="m 54.42,38.89 0.09,0.12 c 1.47,2 4.79,0.52 3.64,-2 C 57.18,35 55.9,33.15 54.38,31.52 50.31,27.1 44.71,24.41 38.72,24 c -1.14,-0.11 -2.16,0.73 -2.27,1.87 -0.11,1.11 0.68,2.1 1.78,2.26 6.46,1.66 12.16,5.45 16.19,10.76 z"
   id="path26558" />
	</g>
	
	
	
	<g
   id="g27322"
   transform="translate(8.4470478,6.4358461)"><path
     style="display:inline;fill:#ffffff"
     d="M 5.77,92 C 6.57,91.04 6.69,89.69 6.07,88.6 4.71,86.28 4.32,83.51 5,80.9 6.07,76.45 9.93,73.24 14.5,73 h 0.6 c 1.71,0.01 3.39,0.44 4.9,1.25 1.6,0.92 3.02,2.15 4.16,3.6 3.52,-1.46 18.5,-7 22.37,-8.43 h 0.06 L 36.33,91.17 v 0 c 4.64,3.43 5.62,9.98 2.19,14.62 -1.83,2.48 -4.67,4.02 -7.75,4.21 h -0.61 c -2.44,0.02 -4.81,-0.83 -6.69,-2.4 -0.56,-0.46 -1.27,-0.71 -2,-0.7 -0.6,0.01 -1.19,0.18 -1.7,0.5 -1.75,1.16 -3.81,1.79 -5.91,1.8 -0.81,0 -1.61,-0.1 -2.39,-0.3 -4.51,-1.02 -7.8,-4.89 -8.11,-9.5 -0.2,-2.69 0.67,-5.35 2.41,-7.4 z"
     id="path26561" /><polygon
     style="display:inline;fill:#92cbeb"
     points="46.56,69.4 31.18,89.69 36.33,91.17 "
     id="polygon26563" /><path
     style="display:inline;fill:#92cbeb"
     d="m 31.65,89.34 c -0.38,0.02 -0.67,0.33 -0.65,0.71 0.01,0.25 0.16,0.47 0.38,0.58 2.06,0.9 3.55,2.74 4,4.94 0.42,2.32 -0.2,5.32 -2,7 -1.8,1.68 -4.78,2 -7.07,1.4 -2.29,-0.6 -5,-3 -6.77,-4.79 -0.3,-0.31 -0.8,-0.32 -1.12,-0.02 -0.13,0.12 -0.21,0.28 -0.23,0.46 -0.1,0.96 -0.02,1.93 0.26,2.85 0.14,0.91 -4.51,4.41 -9.78,1.59 C 1.18,100 7.11,91.5 6.26,91.17 v 0 c -0.12,0.3 -0.28,0.58 -0.49,0.83 -1.74,2.05 -2.61,4.71 -2.41,7.4 0.31,4.61 3.6,8.48 8.11,9.5 0.78,0.2 1.58,0.3 2.39,0.3 2.1,-0.01 4.16,-0.64 5.91,-1.8 0.51,-0.32 1.1,-0.49 1.7,-0.5 0.73,-0.01 1.44,0.24 2,0.7 1.88,1.57 4.25,2.42 6.69,2.4 h 0.61 c 5.76,-0.36 10.14,-5.32 9.77,-11.08 -0.19,-3.08 -1.74,-5.91 -4.21,-7.75 v 0 l 0.61,-1.31 c -1.72,-0.5 -3.51,-0.67 -5.29,-0.52 z"
     id="path26565" /><path
     style="display:inline;fill:#92cbeb"
     d="m 5,80.9 c -0.67,2.61 -0.27,5.38 1.1,7.7 0.42,0.79 0.49,1.72 0.19,2.56 v 0 C 7.55,90.22 8.4,88.83 8.68,87.28 8.78,85.59 8.59,83.9 8.1,82.28 7.65,80.91 7.73,79.43 8.33,78.12 c 1.09,-2.61 4.35,-4.13 4.63,-4.24 0.68,-0.28 0.82,-0.59 0.79,-0.8 C 9.49,73.61 6,76.73 5,80.9 Z"
     id="path26567" /></g>
	
	
	
	<g
   id="g27328"
   style="display:inline"
   transform="translate(-8.4470478,5.2291249)"><path
     style="fill:#ffffff"
     d="m 122.23,92 c -0.8,-0.96 -0.92,-2.31 -0.3,-3.4 1.37,-2.32 1.77,-5.09 1.1,-7.7 -1.07,-4.45 -4.93,-7.66 -9.5,-7.9 h -0.6 c -1.72,0 -3.42,0.43 -4.93,1.25 -1.6,0.92 -3.02,2.15 -4.16,3.6 -3.52,-1.46 -18.5,-7 -22.37,-8.43 h -0.06 l 10.26,21.75 v 0 c -4.64,3.43 -5.62,9.98 -2.19,14.62 1.83,2.48 4.67,4.02 7.75,4.21 h 0.61 c 2.44,0.02 4.81,-0.83 6.69,-2.4 0.56,-0.46 1.27,-0.71 2,-0.7 0.6,0.01 1.19,0.18 1.7,0.5 1.75,1.16 3.81,1.79 5.91,1.8 0.81,0 1.61,-0.1 2.39,-0.3 4.51,-1.02 7.8,-4.89 8.11,-9.5 0.2,-2.69 -0.67,-5.35 -2.41,-7.4 z"
     id="path26569" /><polygon
     style="fill:#92cbeb"
     points="96.81,89.69 91.67,91.17 81.44,69.4 "
     id="polygon26571" /><path
     style="fill:#92cbeb"
     d="m 96.35,89.34 c 0.38,0.02 0.67,0.33 0.65,0.71 -0.01,0.25 -0.16,0.47 -0.38,0.58 -2.06,0.9 -3.55,2.74 -4,4.94 -0.42,2.32 0.2,5.32 2,7 1.8,1.68 4.78,2 7.07,1.4 2.29,-0.6 5,-3 6.77,-4.79 0.3,-0.31 0.8,-0.32 1.12,-0.02 0.13,0.12 0.21,0.28 0.23,0.46 0.1,0.96 0.02,1.93 -0.26,2.85 -0.14,0.91 4.51,4.41 9.78,1.59 7.51,-4 1.58,-12.51 2.43,-12.84 v 0 c 0.12,0.3 0.28,0.58 0.49,0.83 1.74,2.05 2.61,4.71 2.41,7.4 -0.31,4.61 -3.6,8.48 -8.11,9.5 -0.78,0.2 -1.58,0.3 -2.39,0.3 -2.1,-0.01 -4.16,-0.64 -5.91,-1.8 -0.51,-0.32 -1.1,-0.49 -1.7,-0.5 -0.73,-0.01 -1.44,0.24 -2,0.7 -1.88,1.57 -4.25,2.42 -6.69,2.4 h -0.61 c -5.76,-0.36 -10.14,-5.32 -9.77,-11.08 0.19,-3.08 1.74,-5.91 4.21,-7.75 v 0 l -0.61,-1.31 c 1.71,-0.51 3.49,-0.7 5.27,-0.57 z"
     id="path26573" /><path
     style="display:inline;fill:#92cbeb"
     d="m 123,80.9 c 0.67,2.61 0.27,5.38 -1.1,7.7 -0.42,0.79 -0.49,1.72 -0.19,2.56 v 0 c -1.26,-0.94 -2.11,-2.33 -2.39,-3.88 -0.1,-1.69 0.09,-3.38 0.58,-5 0.45,-1.37 0.37,-2.85 -0.23,-4.16 -1.09,-2.61 -4.35,-4.13 -4.63,-4.24 -0.68,-0.28 -0.82,-0.59 -0.79,-0.8 4.26,0.53 7.75,3.65 8.75,7.82 z"
     id="path26575" /></g><path
   id="path8993-4"
   style="display:inline;fill:#e5a500;fill-opacity:1;stroke:none;stroke-width:7.98792;stroke-linecap:round;stroke-linejoin:round;stroke-dasharray:none;stroke-opacity:1"
   d="m 64.171442,62.487276 c -3.891988,0.01001 -7.71991,3.301063 -7.773592,6.147434 l 7.814295,6.080729 7.717289,-5.933755 c -0.237099,-2.921478 -3.836478,-6.295 -7.757992,-6.294408 z" /><path
   id="rect8729-6"
   style="display:inline;fill:#362700;fill-opacity:1;stroke-width:7.98792;stroke-linecap:round;stroke-linejoin:round"
   d="m 64.115085,72.689455 c 1.608964,0 7.873027,-3.985863 7.873027,-3.985863 0,0 -5.562662,7.189383 -7.774984,7.390503 -2.514006,0.201146 -7.873019,-7.483704 -7.873019,-7.483704 0,0 6.266576,4.079064 7.774976,4.079064 z" />
</g><g
       id="g30610"
       style="display:none"><path
         style="display:inline;opacity:1;fill:none;fill-opacity:1;stroke:#af7fff;stroke-width:1.04269;stroke-linecap:round;stroke-linejoin:round;stroke-dasharray:none;stroke-opacity:1"
         d="m 18.395611,15.031854 2.055029,0.68501"
         id="path30598"
         transform="translate(2,-9.375)" /><path
         style="display:inline;opacity:1;fill:none;fill-opacity:1;stroke:#af7fff;stroke-width:1.04269;stroke-linecap:round;stroke-linejoin:round;stroke-dasharray:none;stroke-opacity:1"
         d="m 18.307223,14.280553 2.961009,0.309359"
         id="path30600"
         transform="translate(2,-9.375)" /><path
         style="display:inline;opacity:1;fill:none;fill-opacity:1;stroke:#af7fff;stroke-width:1.04269;stroke-linecap:round;stroke-linejoin:round;stroke-dasharray:none;stroke-opacity:1"
         d="m 18.395611,13.551349 2.629554,-0.353553"
         id="path30602"
         transform="translate(2,-9.375)" /><path
         style="display:inline;opacity:1;fill:none;fill-opacity:1;stroke:#af7fff;stroke-width:1.04269;stroke-linecap:round;stroke-linejoin:round;stroke-dasharray:none;stroke-opacity:1"
         d="M 10.529048,14.943466 7.8773978,15.606378"
         id="path30604"
         transform="translate(2,-9.375)" /><path
         style="display:inline;opacity:1;fill:none;fill-opacity:1;stroke:#af7fff;stroke-width:1.04269;stroke-linecap:round;stroke-linejoin:round;stroke-dasharray:none;stroke-opacity:1"
         d="M 10.308077,14.081679 7.4575532,14.501524"
         id="path30606"
         transform="translate(2,-9.375)" /><path
         style="display:inline;opacity:1;fill:none;fill-opacity:1;stroke:#af7fff;stroke-width:1.04269;stroke-linecap:round;stroke-linejoin:round;stroke-dasharray:none;stroke-opacity:1"
         d="M 10.197592,13.352476 7.3470678,13.087311"
         id="path30608"
         transform="translate(2,-9.375)" /></g><g
       id="g30596"
       style="display:none"><path
         style="display:inline;opacity:1;fill:none;fill-opacity:1;stroke:#422b0d;stroke-width:0.502;stroke-linecap:round;stroke-linejoin:round;stroke-dasharray:none;stroke-opacity:1"
         d="m 18.395611,15.031854 2.055029,0.68501"
         id="path10386"
         transform="translate(2,-9.375)" /><path
         style="display:inline;opacity:1;fill:none;fill-opacity:1;stroke:#422b0d;stroke-width:0.502;stroke-linecap:round;stroke-linejoin:round;stroke-dasharray:none;stroke-opacity:1"
         d="m 18.307223,14.280553 2.961009,0.309359"
         id="path10384"
         transform="translate(2,-9.375)" /><path
         style="display:inline;opacity:1;fill:none;fill-opacity:1;stroke:#422b0d;stroke-width:0.502;stroke-linecap:round;stroke-linejoin:round;stroke-dasharray:none;stroke-opacity:1"
         d="m 18.395611,13.551349 2.629554,-0.353553"
         id="path10274"
         transform="translate(2,-9.375)" /><path
         style="display:inline;opacity:1;fill:none;fill-opacity:1;stroke:#422b0d;stroke-width:0.502;stroke-linecap:round;stroke-linejoin:round;stroke-dasharray:none;stroke-opacity:1"
         d="M 10.529048,14.943466 7.8773978,15.606378"
         id="path10388"
         transform="translate(2,-9.375)" /><path
         style="display:inline;opacity:1;fill:none;fill-opacity:1;stroke:#422b0d;stroke-width:0.502;stroke-linecap:round;stroke-linejoin:round;stroke-dasharray:none;stroke-opacity:1"
         d="M 10.308077,14.081679 7.4575532,14.501524"
         id="path10390"
         transform="translate(2,-9.375)" /><path
         style="display:inline;opacity:1;fill:none;fill-opacity:1;stroke:#422b0d;stroke-width:0.502;stroke-linecap:round;stroke-linejoin:round;stroke-dasharray:none;stroke-opacity:1"
         d="M 10.197592,13.352476 7.3470678,13.087311"
         id="path10392"
         transform="translate(2,-9.375)" /></g><g
       id="g314"
       style="display:inline"><path
         style="display:inline;opacity:1;fill:none;fill-opacity:1;stroke:#886b46;stroke-width:0.502;stroke-linecap:round;stroke-linejoin:round;stroke-dasharray:none;stroke-opacity:1"
         d="m 18.395611,15.031854 2.055029,0.68501"
         id="path302"
         transform="translate(2,-9.375)" /><path
         style="display:inline;opacity:1;fill:none;fill-opacity:1;stroke:#886b46;stroke-width:0.502;stroke-linecap:round;stroke-linejoin:round;stroke-dasharray:none;stroke-opacity:1"
         d="m 18.307223,14.280553 2.961009,0.309359"
         id="path304"
         transform="translate(2,-9.375)" /><path
         style="display:inline;opacity:1;fill:none;fill-opacity:1;stroke:#886b46;stroke-width:0.502;stroke-linecap:round;stroke-linejoin:round;stroke-dasharray:none;stroke-opacity:1"
         d="m 18.395611,13.551349 2.629554,-0.353553"
         id="path306"
         transform="translate(2,-9.375)" /><path
         style="display:inline;opacity:1;fill:none;fill-opacity:1;stroke:#886b46;stroke-width:0.502;stroke-linecap:round;stroke-linejoin:round;stroke-dasharray:none;stroke-opacity:1"
         d="M 10.529048,14.943466 7.8773978,15.606378"
         id="path308"
         transform="translate(2,-9.375)" /><path
         style="display:inline;opacity:1;fill:none;fill-opacity:1;stroke:#886b46;stroke-width:0.502;stroke-linecap:round;stroke-linejoin:round;stroke-dasharray:none;stroke-opacity:1"
         d="M 10.308077,14.081679 7.4575532,14.501524"
         id="path310"
         transform="translate(2,-9.375)" /><path
         style="display:inline;opacity:1;fill:none;fill-opacity:1;stroke:#886b46;stroke-width:0.502;stroke-linecap:round;stroke-linejoin:round;stroke-dasharray:none;stroke-opacity:1"
         d="M 10.197592,13.352476 7.3470678,13.087311"
         id="path312"
         transform="translate(2,-9.375)" /></g></g></svg>
